<svg xmlns="http://www.w3.org/2000/svg" xmlns:xlink="http://www.w3.org/1999/xlink" width="500" viewBox="0 0 375 374.999991" height="500" preserveAspectRatio="xMidYMid meet"><defs><g></g><clipPath id="8160a5ca1e"><path d="M 62.273438 168.410156 L 96.707031 168.410156 L 96.707031 205.800781 L 62.273438 205.800781 Z M 62.273438 168.410156 " clip-rule="nonzero"></path></clipPath><clipPath id="054cd31c96"><path d="M 79.488281 168.410156 L 62.273438 168.410156 L 79.488281 205.722656 L 96.707031 205.722656 Z M 79.488281 168.410156 " clip-rule="nonzero"></path></clipPath><clipPath id="1296143c48"><path d="M 37.5 168.410156 L 71.929688 168.410156 L 71.929688 205.800781 L 37.5 205.800781 Z M 37.5 168.410156 " clip-rule="nonzero"></path></clipPath><clipPath id="6419973ad4"><path d="M 54.714844 168.410156 L 37.5 168.410156 L 54.714844 205.722656 L 71.929688 205.722656 Z M 54.714844 168.410156 " clip-rule="nonzero"></path></clipPath></defs><path stroke-linecap="butt" transform="matrix(0, 0.75, -0.75, 0, 111.248575, 168.412664)" fill="none" stroke-linejoin="miter" d="M 0.00186448 0.9981 L 51.704993 0.9981 " stroke="#000000" stroke-width="2" stroke-opacity="1" stroke-miterlimit="4"></path><g clip-path="url(#8160a5ca1e)"><g clip-path="url(#054cd31c96)"><path fill="#000000" d="M 62.273438 168.410156 L 96.707031 168.410156 L 96.707031 205.667969 L 62.273438 205.667969 Z M 62.273438 168.410156 " fill-opacity="1" fill-rule="nonzero"></path></g></g><g clip-path="url(#1296143c48)"><g clip-path="url(#6419973ad4)"><path fill="#000000" d="M 37.5 168.410156 L 71.929688 168.410156 L 71.929688 205.667969 L 37.5 205.667969 Z M 37.5 168.410156 " fill-opacity="1" fill-rule="nonzero"></path></g></g><g fill="#000000" fill-opacity="1"><g transform="translate(120.258357, 182.429684)"><g><path d="M 24.78125 0 L 17.03125 0 L 8.25 -10.515625 L 8.25 0 L 1.734375 0 L 1.734375 -15.53125 L 9.484375 -15.53125 L 18.265625 -5.078125 L 18.265625 -15.53125 L 24.78125 -15.53125 Z M 24.78125 0 "></path></g></g></g><g fill="#000000" fill-opacity="1"><g transform="translate(146.952348, 182.429684)"><g><path d="M 20.4375 0 L 1.734375 0 L 1.734375 -15.53125 L 19.578125 -15.53125 L 19.578125 -11.6875 L 8.25 -11.6875 L 8.25 -9.25 L 17.828125 -9.25 L 17.828125 -6.265625 L 8.25 -6.265625 L 8.25 -3.84375 L 20.4375 -3.84375 Z M 20.4375 0 "></path></g></g></g><g fill="#000000" fill-opacity="1"><g transform="translate(168.438301, 182.429684)"><g><path d="M 10.921875 0.328125 C 7.128906 0.328125 4.460938 -0.457031 2.921875 -2.03125 C 1.617188 -3.34375 0.96875 -5.25 0.96875 -7.75 L 0.96875 -15.53125 L 7.484375 -15.53125 L 7.484375 -7.75 C 7.484375 -6.664062 7.671875 -5.8125 8.046875 -5.1875 C 8.566406 -4.28125 9.523438 -3.828125 10.921875 -3.828125 C 12.328125 -3.828125 13.289062 -4.28125 13.8125 -5.1875 C 14.175781 -5.832031 14.359375 -6.6875 14.359375 -7.75 L 14.359375 -15.53125 L 20.890625 -15.53125 L 20.890625 -7.671875 C 20.890625 -5.222656 20.242188 -3.34375 18.953125 -2.03125 C 17.398438 -0.457031 14.722656 0.328125 10.921875 0.328125 Z M 10.921875 0.328125 "></path></g></g></g><g fill="#000000" fill-opacity="1"><g transform="translate(190.476457, 182.429684)"><g><path d="M 22.9375 0 L 16.78125 0 C 16.5 -0.382812 16.300781 -0.882812 16.1875 -1.5 C 16.082031 -1.96875 15.925781 -2.425781 15.71875 -2.875 C 15.519531 -3.320312 15.171875 -3.695312 14.671875 -4 C 14.179688 -4.300781 13.453125 -4.460938 12.484375 -4.484375 L 8.25 -4.484375 L 8.25 0 L 1.734375 0 L 1.734375 -15.53125 L 12.328125 -15.53125 C 14.859375 -15.53125 16.898438 -15.34375 18.453125 -14.96875 C 20.015625 -14.59375 21.148438 -14 21.859375 -13.1875 C 22.578125 -12.375 22.9375 -11.3125 22.9375 -10 C 22.9375 -8.914062 22.6875 -8 22.1875 -7.25 C 21.695312 -6.507812 20.921875 -5.921875 19.859375 -5.484375 C 20.890625 -5.054688 21.554688 -4.546875 21.859375 -3.953125 C 22.171875 -3.359375 22.363281 -2.703125 22.4375 -1.984375 C 22.507812 -1.359375 22.675781 -0.695312 22.9375 0 Z M 8.25 -8.3125 L 11.96875 -8.328125 C 13.007812 -8.328125 13.828125 -8.375 14.421875 -8.46875 C 15.023438 -8.5625 15.46875 -8.6875 15.75 -8.84375 C 16.039062 -9.007812 16.222656 -9.191406 16.296875 -9.390625 C 16.378906 -9.585938 16.421875 -9.789062 16.421875 -10 C 16.421875 -10.207031 16.378906 -10.410156 16.296875 -10.609375 C 16.222656 -10.816406 16.039062 -11 15.75 -11.15625 C 15.46875 -11.320312 15.023438 -11.453125 14.421875 -11.546875 C 13.828125 -11.640625 13.007812 -11.6875 11.96875 -11.6875 L 8.25 -11.6875 Z M 8.25 -8.3125 "></path></g></g></g><g fill="#000000" fill-opacity="1"><g transform="translate(214.463569, 182.429684)"><g><path d="M 11.75 0.328125 C 7.90625 0.328125 5.078125 -0.457031 3.265625 -2.03125 C 1.660156 -3.4375 0.859375 -5.347656 0.859375 -7.765625 C 0.859375 -10.171875 1.660156 -12.078125 3.265625 -13.484375 C 5.078125 -15.054688 7.90625 -15.84375 11.75 -15.84375 C 15.582031 -15.84375 18.40625 -15.054688 20.21875 -13.484375 C 21.820312 -12.078125 22.625 -10.171875 22.625 -7.765625 C 22.625 -5.347656 21.820312 -3.4375 20.21875 -2.03125 C 18.40625 -0.457031 15.582031 0.328125 11.75 0.328125 Z M 11.75 -3.828125 C 13.320312 -3.828125 14.472656 -4.28125 15.203125 -5.1875 C 15.796875 -5.914062 16.09375 -6.773438 16.09375 -7.765625 C 16.09375 -8.753906 15.796875 -9.609375 15.203125 -10.328125 C 14.472656 -11.234375 13.320312 -11.6875 11.75 -11.6875 C 10.175781 -11.6875 9.015625 -11.234375 8.265625 -10.328125 C 7.679688 -9.609375 7.390625 -8.753906 7.390625 -7.765625 C 7.390625 -6.773438 7.679688 -5.914062 8.265625 -5.1875 C 9.015625 -4.28125 10.175781 -3.828125 11.75 -3.828125 Z M 11.75 -3.828125 "></path></g></g></g><g fill="#000000" fill-opacity="1"><g transform="translate(238.136684, 182.429684)"><g><path d="M 14.921875 0 L 8.859375 0 L 0.15625 -15.53125 L 6.765625 -15.53125 L 11.890625 -4.421875 L 17.015625 -15.53125 L 23.625 -15.53125 Z M 14.921875 0 "></path></g></g></g><g fill="#000000" fill-opacity="1"><g transform="translate(262.102134, 182.429684)"><g><path d="M 26.09375 0 L 19.484375 0 L 18.03125 -2.546875 L 8.234375 -2.546875 L 6.765625 0 L 0.15625 0 L 10.09375 -15.53125 L 16.15625 -15.53125 Z M 15.828125 -6.390625 L 13.125 -11.09375 L 10.421875 -6.390625 Z M 15.828125 -6.390625 "></path></g></g></g><g fill="#000000" fill-opacity="1"><g transform="translate(288.536266, 182.429684)"><g></g></g></g><g fill="#000000" fill-opacity="1"><g transform="translate(294.214044, 182.429684)"><g><path d="M 26.09375 0 L 19.484375 0 L 18.03125 -2.546875 L 8.234375 -2.546875 L 6.765625 0 L 0.15625 0 L 10.09375 -15.53125 L 16.15625 -15.53125 Z M 15.828125 -6.390625 L 13.125 -11.09375 L 10.421875 -6.390625 Z M 15.828125 -6.390625 "></path></g></g></g><g fill="#000000" fill-opacity="1"><g transform="translate(320.648176, 182.429684)"><g><path d="M 8.25 0 L 1.734375 0 L 1.734375 -15.53125 L 8.25 -15.53125 Z M 8.25 0 "></path></g></g></g><g fill="#000000" fill-opacity="1"><g transform="translate(124.294523, 199.533698)"><g><path d="M 3.03125 0.171875 C 2.519531 0.171875 2.054688 0.117188 1.640625 0.015625 C 1.234375 -0.0859375 0.835938 -0.265625 0.453125 -0.515625 L 0.703125 -1.390625 C 1.003906 -1.160156 1.351562 -0.984375 1.75 -0.859375 C 2.144531 -0.734375 2.59375 -0.671875 3.09375 -0.671875 C 3.675781 -0.671875 4.125 -0.785156 4.4375 -1.015625 C 4.75 -1.253906 4.90625 -1.578125 4.90625 -1.984375 C 4.90625 -2.304688 4.8125 -2.585938 4.625 -2.828125 C 4.4375 -3.066406 4.078125 -3.296875 3.546875 -3.515625 L 2.640625 -3.875 C 1.941406 -4.144531 1.4375 -4.457031 1.125 -4.8125 C 0.820312 -5.164062 0.671875 -5.625 0.671875 -6.1875 C 0.671875 -6.851562 0.914062 -7.382812 1.40625 -7.78125 C 1.90625 -8.175781 2.5625 -8.375 3.375 -8.375 C 3.78125 -8.375 4.15625 -8.335938 4.5 -8.265625 C 4.84375 -8.191406 5.148438 -8.085938 5.421875 -7.953125 L 5.421875 -7.015625 C 5.109375 -7.179688 4.78125 -7.3125 4.4375 -7.40625 C 4.09375 -7.5 3.738281 -7.546875 3.375 -7.546875 C 2.820312 -7.546875 2.390625 -7.4375 2.078125 -7.21875 C 1.765625 -7.007812 1.609375 -6.707031 1.609375 -6.3125 C 1.609375 -5.988281 1.707031 -5.707031 1.90625 -5.46875 C 2.101562 -5.226562 2.5 -4.988281 3.09375 -4.75 L 3.953125 -4.390625 C 4.628906 -4.128906 5.113281 -3.816406 5.40625 -3.453125 C 5.695312 -3.097656 5.84375 -2.644531 5.84375 -2.09375 C 5.84375 -1.40625 5.59375 -0.851562 5.09375 -0.4375 C 4.601562 -0.03125 3.914062 0.171875 3.03125 0.171875 Z M 3.03125 0.171875 "></path></g></g></g><g fill="#000000" fill-opacity="1"><g transform="translate(132.651125, 199.533698)"><g><path d="M 4.453125 0.171875 C 3.648438 0.171875 2.953125 0.00390625 2.359375 -0.328125 C 1.773438 -0.671875 1.320312 -1.15625 1 -1.78125 C 0.675781 -2.40625 0.515625 -3.148438 0.515625 -4.015625 C 0.515625 -4.890625 0.679688 -5.648438 1.015625 -6.296875 C 1.347656 -6.953125 1.816406 -7.46875 2.421875 -7.84375 C 3.023438 -8.21875 3.726562 -8.40625 4.53125 -8.40625 C 5.332031 -8.40625 6.03125 -8.234375 6.625 -7.890625 C 7.21875 -7.554688 7.675781 -7.078125 8 -6.453125 C 8.320312 -5.828125 8.484375 -5.082031 8.484375 -4.21875 C 8.484375 -3.351562 8.3125 -2.585938 7.96875 -1.921875 C 7.632812 -1.265625 7.164062 -0.75 6.5625 -0.375 C 5.96875 -0.0078125 5.265625 0.171875 4.453125 0.171875 Z M 4.484375 -0.671875 C 5.097656 -0.671875 5.625 -0.816406 6.0625 -1.109375 C 6.507812 -1.398438 6.851562 -1.804688 7.09375 -2.328125 C 7.34375 -2.847656 7.46875 -3.445312 7.46875 -4.125 C 7.46875 -5.1875 7.203125 -6.023438 6.671875 -6.640625 C 6.140625 -7.253906 5.410156 -7.5625 4.484375 -7.5625 C 3.890625 -7.5625 3.367188 -7.414062 2.921875 -7.125 C 2.484375 -6.832031 2.140625 -6.425781 1.890625 -5.90625 C 1.640625 -5.394531 1.515625 -4.796875 1.515625 -4.109375 C 1.515625 -3.046875 1.78125 -2.207031 2.3125 -1.59375 C 2.84375 -0.976562 3.566406 -0.671875 4.484375 -0.671875 Z M 4.484375 -0.671875 "></path></g></g></g><g fill="#000000" fill-opacity="1"><g transform="translate(143.638506, 199.533698)"><g><path d="M 5.75 -8.234375 L 5.75 -7.40625 L 2.046875 -7.40625 L 2.046875 -4.40625 L 5.296875 -4.40625 L 5.296875 -3.609375 L 2.046875 -3.609375 L 2.046875 0 L 1.0625 0 L 1.0625 -8.234375 Z M 5.75 -8.234375 "></path></g></g></g><g fill="#000000" fill-opacity="1"><g transform="translate(151.6856, 199.533698)"><g><path d="M 6.25 -8.234375 L 6.25 -7.40625 L 3.6875 -7.40625 L 3.6875 0 L 2.6875 0 L 2.6875 -7.40625 L 0.125 -7.40625 L 0.125 -8.234375 Z M 6.25 -8.234375 "></path></g></g></g><g fill="#000000" fill-opacity="1"><g transform="translate(160.057669, 199.533698)"><g><path d="M 8.140625 -1.140625 L 10.078125 -8.234375 L 11.015625 -8.234375 L 8.671875 0 L 7.53125 0 L 5.578125 -6.125 L 3.625 0 L 2.46875 0 L 0.140625 -8.234375 L 1.15625 -8.234375 L 3.125 -1.171875 L 5.125 -7.421875 L 6.125 -7.421875 Z M 8.140625 -1.140625 "></path></g></g></g><g fill="#000000" fill-opacity="1"><g transform="translate(173.211574, 199.533698)"><g><path d="M 7.328125 0 L 6.296875 0 L 5.453125 -2.328125 L 1.984375 -2.328125 L 1.15625 0 L 0.21875 0 L 3.1875 -8.234375 L 4.359375 -8.234375 Z M 3.71875 -7.21875 L 2.25 -3.078125 L 5.203125 -3.078125 Z M 3.71875 -7.21875 "></path></g></g></g><g fill="#000000" fill-opacity="1"><g transform="translate(182.759774, 199.533698)"><g><path d="M 4.484375 -3.46875 L 6.875 0 L 5.71875 0 L 3.421875 -3.359375 L 2.046875 -3.359375 L 2.046875 0 L 1.0625 0 L 1.0625 -8.234375 L 3.4375 -8.234375 C 4.46875 -8.234375 5.25 -8.035156 5.78125 -7.640625 C 6.3125 -7.242188 6.578125 -6.664062 6.578125 -5.90625 C 6.578125 -5.257812 6.390625 -4.726562 6.015625 -4.3125 C 5.648438 -3.894531 5.140625 -3.613281 4.484375 -3.46875 Z M 3.4375 -7.40625 L 2.046875 -7.40625 L 2.046875 -4.140625 L 3.375 -4.140625 C 4.070312 -4.140625 4.609375 -4.28125 4.984375 -4.5625 C 5.367188 -4.851562 5.5625 -5.265625 5.5625 -5.796875 C 5.5625 -6.316406 5.378906 -6.710938 5.015625 -6.984375 C 4.660156 -7.265625 4.132812 -7.40625 3.4375 -7.40625 Z M 3.4375 -7.40625 "></path></g></g></g><g fill="#000000" fill-opacity="1"><g transform="translate(191.89014, 199.533698)"><g><path d="M 2.046875 -3.828125 L 2.046875 -0.8125 L 5.953125 -0.8125 L 5.953125 0 L 1.0625 0 L 1.0625 -8.234375 L 5.796875 -8.234375 L 5.796875 -7.40625 L 2.046875 -7.40625 L 2.046875 -4.59375 L 5.453125 -4.59375 L 5.453125 -3.828125 Z M 2.046875 -3.828125 "></path></g></g></g><g fill="#000000" fill-opacity="1"><g transform="translate(200.370534, 199.533698)"><g></g></g></g><g fill="#000000" fill-opacity="1"><g transform="translate(205.276157, 199.533698)"><g><path d="M 3.6875 -8.234375 C 4.96875 -8.234375 5.957031 -7.882812 6.65625 -7.1875 C 7.363281 -6.488281 7.71875 -5.507812 7.71875 -4.25 C 7.71875 -3.394531 7.550781 -2.644531 7.21875 -2 C 6.882812 -1.363281 6.410156 -0.867188 5.796875 -0.515625 C 5.179688 -0.171875 4.457031 0 3.625 0 L 1.0625 0 L 1.0625 -8.234375 Z M 2.03125 -0.8125 L 3.625 -0.8125 C 4.570312 -0.8125 5.328125 -1.109375 5.890625 -1.703125 C 6.453125 -2.304688 6.734375 -3.125 6.734375 -4.15625 C 6.734375 -5.164062 6.460938 -5.957031 5.921875 -6.53125 C 5.378906 -7.113281 4.632812 -7.40625 3.6875 -7.40625 L 2.03125 -7.40625 Z M 2.03125 -0.8125 "></path></g></g></g><g fill="#000000" fill-opacity="1"><g transform="translate(215.520728, 199.533698)"><g><path d="M 2.046875 -3.828125 L 2.046875 -0.8125 L 5.953125 -0.8125 L 5.953125 0 L 1.0625 0 L 1.0625 -8.234375 L 5.796875 -8.234375 L 5.796875 -7.40625 L 2.046875 -7.40625 L 2.046875 -4.59375 L 5.453125 -4.59375 L 5.453125 -3.828125 Z M 2.046875 -3.828125 "></path></g></g></g><g fill="#000000" fill-opacity="1"><g transform="translate(224.001118, 199.533698)"><g><path d="M 3.6875 -1.078125 L 6.25 -8.234375 L 7.1875 -8.234375 L 4.1875 0 L 3.078125 0 L 0.078125 -8.234375 L 1.109375 -8.234375 Z M 3.6875 -1.078125 "></path></g></g></g><g fill="#000000" fill-opacity="1"><g transform="translate(233.270757, 199.533698)"><g><path d="M 2.046875 -3.828125 L 2.046875 -0.8125 L 5.953125 -0.8125 L 5.953125 0 L 1.0625 0 L 1.0625 -8.234375 L 5.796875 -8.234375 L 5.796875 -7.40625 L 2.046875 -7.40625 L 2.046875 -4.59375 L 5.453125 -4.59375 L 5.453125 -3.828125 Z M 2.046875 -3.828125 "></path></g></g></g><g fill="#000000" fill-opacity="1"><g transform="translate(241.751146, 199.533698)"><g><path d="M 2.046875 -8.234375 L 2.046875 -0.8125 L 5.75 -0.8125 L 5.75 0 L 1.0625 0 L 1.0625 -8.234375 Z M 2.046875 -8.234375 "></path></g></g></g><g fill="#000000" fill-opacity="1"><g transform="translate(249.643491, 199.533698)"><g><path d="M 4.453125 0.171875 C 3.648438 0.171875 2.953125 0.00390625 2.359375 -0.328125 C 1.773438 -0.671875 1.320312 -1.15625 1 -1.78125 C 0.675781 -2.40625 0.515625 -3.148438 0.515625 -4.015625 C 0.515625 -4.890625 0.679688 -5.648438 1.015625 -6.296875 C 1.347656 -6.953125 1.816406 -7.46875 2.421875 -7.84375 C 3.023438 -8.21875 3.726562 -8.40625 4.53125 -8.40625 C 5.332031 -8.40625 6.03125 -8.234375 6.625 -7.890625 C 7.21875 -7.554688 7.675781 -7.078125 8 -6.453125 C 8.320312 -5.828125 8.484375 -5.082031 8.484375 -4.21875 C 8.484375 -3.351562 8.3125 -2.585938 7.96875 -1.921875 C 7.632812 -1.265625 7.164062 -0.75 6.5625 -0.375 C 5.96875 -0.0078125 5.265625 0.171875 4.453125 0.171875 Z M 4.484375 -0.671875 C 5.097656 -0.671875 5.625 -0.816406 6.0625 -1.109375 C 6.507812 -1.398438 6.851562 -1.804688 7.09375 -2.328125 C 7.34375 -2.847656 7.46875 -3.445312 7.46875 -4.125 C 7.46875 -5.1875 7.203125 -6.023438 6.671875 -6.640625 C 6.140625 -7.253906 5.410156 -7.5625 4.484375 -7.5625 C 3.890625 -7.5625 3.367188 -7.414062 2.921875 -7.125 C 2.484375 -6.832031 2.140625 -6.425781 1.890625 -5.90625 C 1.640625 -5.394531 1.515625 -4.796875 1.515625 -4.109375 C 1.515625 -3.046875 1.78125 -2.207031 2.3125 -1.59375 C 2.84375 -0.976562 3.566406 -0.671875 4.484375 -0.671875 Z M 4.484375 -0.671875 "></path></g></g></g><g fill="#000000" fill-opacity="1"><g transform="translate(260.630866, 199.533698)"><g><path d="M 3.4375 -8.234375 C 5.53125 -8.234375 6.578125 -7.425781 6.578125 -5.8125 C 6.578125 -4.988281 6.289062 -4.335938 5.71875 -3.859375 C 5.15625 -3.390625 4.375 -3.15625 3.375 -3.15625 L 2.046875 -3.15625 L 2.046875 0 L 1.0625 0 L 1.0625 -8.234375 Z M 2.046875 -3.9375 L 3.375 -3.9375 C 4.070312 -3.9375 4.609375 -4.09375 4.984375 -4.40625 C 5.367188 -4.726562 5.5625 -5.164062 5.5625 -5.71875 C 5.5625 -6.84375 4.851562 -7.40625 3.4375 -7.40625 L 2.046875 -7.40625 Z M 2.046875 -3.9375 "></path></g></g></g><g fill="#000000" fill-opacity="1"><g transform="translate(269.420765, 199.533698)"><g><path d="M 5 -2.640625 L 7.703125 -8.234375 L 8.90625 -8.234375 L 8.90625 0 L 7.921875 0 L 7.921875 -5.53125 C 7.921875 -5.988281 7.9375 -6.453125 7.96875 -6.921875 L 5.390625 -1.5625 L 4.546875 -1.5625 L 1.9375 -6.953125 C 1.96875 -6.472656 1.984375 -6 1.984375 -5.53125 L 1.984375 0 L 1.0625 0 L 1.0625 -8.234375 L 2.28125 -8.234375 Z M 5 -2.640625 "></path></g></g></g><g fill="#000000" fill-opacity="1"><g transform="translate(281.398555, 199.533698)"><g><path d="M 2.046875 -3.828125 L 2.046875 -0.8125 L 5.953125 -0.8125 L 5.953125 0 L 1.0625 0 L 1.0625 -8.234375 L 5.796875 -8.234375 L 5.796875 -7.40625 L 2.046875 -7.40625 L 2.046875 -4.59375 L 5.453125 -4.59375 L 5.453125 -3.828125 Z M 2.046875 -3.828125 "></path></g></g></g><g fill="#000000" fill-opacity="1"><g transform="translate(289.878954, 199.533698)"><g><path d="M 6.53125 -2.859375 L 6.53125 -8.234375 L 7.421875 -8.234375 L 7.421875 0 L 6.4375 0 L 2.484375 -6 C 2.378906 -6.15625 2.28125 -6.3125 2.1875 -6.46875 C 2.101562 -6.625 2.015625 -6.785156 1.921875 -6.953125 C 1.953125 -6.503906 1.96875 -6.046875 1.96875 -5.578125 L 1.96875 0 L 1.0625 0 L 1.0625 -8.234375 L 2.203125 -8.234375 L 6 -2.453125 C 6.101562 -2.296875 6.203125 -2.140625 6.296875 -1.984375 C 6.398438 -1.828125 6.5 -1.660156 6.59375 -1.484375 C 6.570312 -1.722656 6.554688 -1.953125 6.546875 -2.171875 C 6.535156 -2.398438 6.53125 -2.628906 6.53125 -2.859375 Z M 6.53125 -2.859375 "></path></g></g></g><g fill="#000000" fill-opacity="1"><g transform="translate(300.371133, 199.533698)"><g><path d="M 6.25 -8.234375 L 6.25 -7.40625 L 3.6875 -7.40625 L 3.6875 0 L 2.6875 0 L 2.6875 -7.40625 L 0.125 -7.40625 L 0.125 -8.234375 Z M 6.25 -8.234375 "></path></g></g></g></svg>